<svg width="564" height="209" viewBox="0 0 564 209" fill="none" xmlns="http://www.w3.org/2000/svg">
<path d="M185.32 158H163.432L126.824 102.576V158H104.936V68.144H126.824L163.432 123.824V68.144H185.32V158ZM243.682 158.896C235.234 158.896 227.469 156.933 220.386 153.008C213.389 149.083 207.799 143.621 203.618 136.624C199.522 129.541 197.474 121.605 197.474 112.816C197.474 104.027 199.522 96.1333 203.618 89.136C207.799 82.1387 213.389 76.6773 220.386 72.752C227.469 68.8267 235.234 66.864 243.682 66.864C252.13 66.864 259.853 68.8267 266.85 72.752C273.933 76.6773 279.479 82.1387 283.49 89.136C287.586 96.1333 289.634 104.027 289.634 112.816C289.634 121.605 287.586 129.541 283.49 136.624C279.394 143.621 273.847 149.083 266.85 153.008C259.853 156.933 252.13 158.896 243.682 158.896ZM243.682 138.928C250.85 138.928 256.567 136.539 260.834 131.76C265.186 126.981 267.362 120.667 267.362 112.816C267.362 104.88 265.186 98.5653 260.834 93.872C256.567 89.0933 250.85 86.704 243.682 86.704C236.429 86.704 230.626 89.0507 226.274 93.744C222.007 98.4373 219.874 104.795 219.874 112.816C219.874 120.752 222.007 127.109 226.274 131.888C230.626 136.581 236.429 138.928 243.682 138.928ZM366.451 68.144V85.68H342.643V158H320.755V85.68H296.947V68.144H366.451ZM399.324 68.144V158H377.436V68.144H399.324ZM473.682 68.144V85.68H437.074V104.624H464.466V121.648H437.074V158H415.186V68.144H473.682ZM562.242 68.144L531.138 128.304V158H509.25V128.304L478.146 68.144H502.978L520.386 105.776L537.666 68.144H562.242Z" fill="#266040"/>
<path d="M97.75 42.9062C98.5625 42.3125 99.4375 41.7188 100.375 41.1562C101.781 34.1875 104.406 27.6562 108.25 21.5C106.625 22.0625 105.188 22.9375 103.969 24.0938C103.594 24.4375 103.219 24.625 102.844 24.625C102.594 24.625 101.781 24.5625 101.406 23.4688C101.344 23.2812 101.312 23.0938 101.312 22.9062C101.312 22.5625 101.438 22.1875 101.688 21.8125C103.781 19.5938 106.312 18.0312 109.312 17.1875L110.25 16.8125C110.688 16.6562 111.125 16.4688 111.594 16.2812C113.031 15.625 114.5 15.125 116.031 14.7812C116.562 14.6562 117.062 14.5938 117.594 14.5938C118.562 14.5938 119.531 14.8125 120.469 15.25C120.969 15.5312 121.25 15.9375 121.281 16.4375V16.5938C121.281 17.4375 120.688 18.3125 119.594 18.4375C117.406 18.5625 115.312 18.9688 113.344 19.6875C113.312 19.875 113.25 20.0938 113.156 20.3125C109.75 26.0625 107.25 32.125 105.594 38.5312C108.375 37.375 111.188 36.7812 113.969 36.7812C114.5 36.7812 115.062 36.8125 115.594 36.8438C116.156 36.9375 116.594 37.1875 116.875 37.625C117.062 37.9688 117.156 38.2812 117.156 38.625C117.156 38.7812 117.125 39 117.031 39.3125C116.969 39.5938 116.625 39.8438 116 40C114.906 40.2188 113.844 40.4375 112.75 40.5938C111.031 40.8438 109.312 41.2188 107.625 41.7188C106.656 42.0312 105.75 42.4062 104.844 42.8125C104.812 42.875 104.812 42.9375 104.812 43.0312C104.781 43.125 104.781 43.25 104.781 43.3438C104.625 44.5625 104.531 45.8438 104.531 47.1562C104.531 47.8125 104.562 48.8125 104.656 50.1875C104.75 51.5312 105.312 53 106.344 54.5938C107.281 55.75 108.312 56.3438 109.469 56.3438C110.188 56.3438 112.25 55.9062 115.156 53.875C115.594 53.5938 116 53.3438 116.375 53.125C116.75 52.9375 117.094 52.8438 117.406 52.8438C117.938 52.8438 118.938 53.2188 119.219 54.4375C119.25 54.5938 119.281 54.7188 119.281 54.875C119.281 55.3438 119.094 55.7812 118.75 56.1875C117.312 57.7812 115.469 59.0938 113.219 60.0938C111.781 60.75 110.344 61.0625 108.938 61.0625C108.156 61.0625 107.375 60.9688 106.594 60.75C104.5 60 102.969 58.625 101.938 56.5938C100.906 54.5625 100.312 52.5312 100.094 50.4688C99.9375 49.25 99.875 48.0312 99.875 46.8125C99.875 46.4062 99.875 46 99.9062 45.5938C99.875 45.625 99.8125 45.6562 99.75 45.6875L99.5 45.875C99.1562 46.0938 98.8125 46.1875 98.5312 46.1875C98.0312 46.1875 97.1562 45.7812 97 44.5312V44.3125C97 43.7812 97.25 43.3125 97.75 42.9062ZM122.844 49.8125C123 48.5312 123.219 47.2812 123.5 46C121.719 46.9062 119.938 47.9062 118.219 49.0625C117.938 49.2188 117.688 49.2812 117.438 49.2812C116.969 49.2812 116.125 48.9375 115.844 47.9375C115.812 47.8438 115.812 47.7188 115.812 47.625C115.812 47.25 115.969 46.9062 116.312 46.5938C118.906 44.5 121.719 42.8125 124.719 41.5312C125.062 40.3438 125.5 39.1875 125.969 38.0312C128.531 31.5625 132.031 25.625 136.469 20.25C136.688 19.2812 137 18.375 137.375 17.5V17.4688C137.531 16.875 137.844 16.5 138.312 16.4062C138.469 16.375 138.594 16.3438 138.75 16.3438C139.375 16.3438 140.312 16.75 140.438 17.875C140.469 18.3125 140.469 18.75 140.469 19.2188C140.469 21 140.344 22.8125 140.062 24.6562C139.875 26.1875 139.75 27.7188 139.656 29.2188C139.625 29.9062 139.625 30.5938 139.625 31.2812C139.625 34.2188 139.781 37.1562 140.062 40.0938C140.438 44.0625 141.125 47.9688 142.094 51.8125C142.406 53 142.781 54.1875 143.219 55.375C144.031 57.4688 144.562 59.5938 144.812 61.75V61.8125C144.812 62.8125 143.938 63.5312 142.906 63.625H142.781C142.312 63.625 141.938 63.4375 141.625 63.0625C139.656 60.0938 138.375 56.75 137.75 53.0625C137.656 52.6875 137.594 52.3125 137.5 51.9688C136.719 48.8125 136.156 45.5938 135.781 42.375C133.312 42.6562 130.906 43.1562 128.625 43.9375C128.125 45.8125 127.719 47.7188 127.438 49.625C127.25 51 127.156 52.4062 127.156 53.8125C127.156 55.8438 126.938 57.8438 126.469 59.75C126.344 60.1875 126.062 60.5312 125.625 60.75C125.312 60.9062 125 61 124.688 61C124.438 61 123.781 61.125 123.312 60.1562C122.688 58.1875 122.375 56.2188 122.375 54.1875C122.375 52.75 122.531 51.2812 122.844 49.8125ZM130.062 39.1562L129.875 39.7188C131.688 39.25 133.531 38.875 135.406 38.5938C135.312 37 135.25 35.4062 135.25 33.8125C135.25 31.9062 135.312 30.0312 135.469 28.125V28.0312C135.5 27.9688 135.5 27.9062 135.5 27.8438C133.344 31.4375 131.531 35.1875 130.062 39.1562ZM147.938 51.3438C148.188 51.5625 148.531 51.9375 148.969 52.4062C149.812 53.375 150.875 54.4375 152.094 55.5938C153.344 56.75 154.562 57.5312 155.781 57.9375C156.094 58.0312 156.375 58.0938 156.656 58.0938C157.469 58.0938 158.156 57.625 158.75 56.7188C159 56.1875 159.125 55.6562 159.125 55.0938C159.125 54.375 158.844 53.5 158.25 52.4375C157.688 51.375 156.781 50.25 155.531 49.0625C154.312 47.875 153.25 46.9375 152.344 46.2188L152.188 46.0625C150.562 44.7812 149.156 43.4375 148 42C146.844 40.5625 146.156 38.7812 145.906 36.625V36.2188C145.906 32.125 147.156 28.375 149.688 25.0312C151.844 21.5312 154.5 18.4375 157.594 15.75C158.781 14.7812 160.188 13.9375 161.844 13.2188C162.625 12.875 163.406 12.7188 164.188 12.7188C165 12.7188 165.812 12.9062 166.594 13.3125C167.938 14.2812 168.656 15.5938 168.75 17.3125C168.781 17.6562 168.781 17.9688 168.781 18.3125C168.781 19.625 168.656 20.875 168.375 22.0312C167.469 26.0312 165.5 29.4062 162.469 32.1875C162.062 32.5312 161.625 32.6875 161.219 32.6875C160.844 32.6875 159.781 32.5312 159.375 31.3125C159.312 31.125 159.281 30.9375 159.281 30.7812C159.281 30.375 159.469 29.9688 159.844 29.5625C161.25 28.3125 162.531 26.625 163.75 24.5C164.656 22.9062 165.125 21.3438 165.125 19.8125C165.125 19.3125 165.062 18.8125 164.969 18.3438C164.719 17.5938 164.312 17.2188 163.75 17.2188C163.594 17.2188 163.219 17.3125 162.688 17.5C162.156 17.6562 161.375 18.2188 160.344 19.1875C159.312 20.125 158.344 21.0938 157.5 22.0938C156.656 23.0625 156.062 23.7812 155.781 24.1875C155.625 24.375 155.5 24.5625 155.344 24.7812C154.188 26.3125 153.125 27.9688 152.156 29.6875C151.188 31.4062 150.688 33.25 150.594 35.1875C150.625 36.9062 151.156 38.375 152.125 39.5625C153.125 40.7188 154.281 41.8125 155.594 42.8125C156.469 43.5 157.281 44.2188 158.062 44.9688C159.5 46.375 160.844 48.0938 162.062 50.1562C163.281 52.1875 163.875 54.25 163.875 56.3125C163.875 56.3438 163.875 56.875 163.844 57.9688C163.844 59.0312 162.688 60.2812 160.375 61.6875C158.906 62.4062 157.531 62.75 156.188 62.75C154.469 62.75 152.562 61.9062 150.469 60.25C148.375 58.5938 146.469 56.4375 144.75 53.7812C144.5 53.4062 144.375 53.0312 144.375 52.6875C144.375 52.1875 144.75 51.2188 146.094 50.8438C146.25 50.8125 146.438 50.7812 146.594 50.7812C147.062 50.7812 147.531 50.9688 147.938 51.3438ZM193.375 18C193.812 17.625 194.25 17.4375 194.688 17.4375C195.031 17.4375 195.906 17.5625 196.375 18.7812C196.438 18.9688 196.469 19.1562 196.469 19.3438C196.469 19.75 196.312 20.1875 196 20.625C191.219 27.0938 187.281 34.0625 184.156 41.5C184.094 41.5938 184.031 41.7188 184 41.8438C182.094 45.75 180.656 49.8438 179.656 54.0625C179.25 56.2188 178.969 58.4062 178.812 60.5625C178.656 62.375 178.438 64.1562 178.156 65.9375C178 66.6562 177.594 67.125 177 67.3438C176.719 67.4375 176.406 67.5 176.125 67.5C175.5 67.5 174.375 67.3125 174 65.9375C173.688 64.2812 173.531 62.5625 173.531 60.8438C173.531 56.875 174.594 50.875 177.594 43.9062C176.75 45 175.844 46.0625 174.875 47.0625C173.469 48.7188 171.688 49.5312 169.594 49.5312H169.156C167.312 49.1875 166.125 48.2812 165.594 46.75C165.25 45.6562 165.062 44.5 165.062 43.2188C165.062 42.1875 165.344 39.5 166 36.5312C166.062 36.25 166.125 35.9688 166.188 35.7188C167.562 29.3438 170.031 23.4375 173.625 18C174.031 17.4375 174.5 17.1562 175.031 17.1562C175.062 17.1562 175.25 17.1875 175.594 17.2188C175.938 17.25 176.25 17.5 176.594 17.9688C176.781 18.25 176.875 18.5312 176.875 18.8438C176.875 19.125 176.812 19.4375 176.656 19.7812C174.312 24.25 172.594 28.9688 171.469 33.9375C170.938 36.2812 170.531 38.625 170.25 41C170.219 41.125 170.188 41.3438 170.156 41.625C170.031 42.25 169.875 43.0938 169.875 43.7188C169.875 44.0312 169.906 44.25 170 44.375C170.25 44.5938 170.5 44.6875 170.719 44.6875C171.062 44.6875 171.625 44.375 172.219 43.6562C172.312 43.5625 172.375 43.5 172.438 43.4062C175.969 39.7188 179.188 35.7812 182.125 31.5625C184.656 28.0625 187.312 24.7188 190.125 21.5C191.125 20.2812 192.219 19.125 193.375 18Z" fill="#C0392B"/>
<path d="M6.91612 86.0023L74.0839 86C75.2979 86 76.4905 86.3195 77.5419 86.9265C78.5933 87.5335 79.4664 88.4065 80.0734 89.4578C80.6804 90.5092 81 91.7018 81 92.9157C81 94.1297 80.6804 95.3223 80.0734 96.3736L46.4896 154.542C45.8826 155.593 45.0095 156.466 43.9581 157.073C42.9067 157.68 41.714 158 40.5 158C39.286 158 38.0933 157.68 37.0419 157.073C35.9905 156.466 35.1174 155.593 34.5104 154.542L0.926582 96.3759C0.319565 95.3245 0 94.1319 0 92.918C7.62939e-06 91.704 0.319572 90.5114 0.92659 89.4601C1.53361 88.4088 2.40669 87.5357 3.45808 86.9288C4.50946 86.3218 5.7021 86.0022 6.91612 86.0023ZM36.1583 132.711C36.1583 133.744 36.5689 134.736 37.2999 135.466C38.0308 136.197 39.0222 136.608 40.0559 136.608H40.9441C41.9778 136.608 42.9692 136.197 43.7001 135.466C44.4311 134.736 44.8417 133.744 44.8417 132.711L44.8417 114.024C44.8417 112.99 44.4311 111.999 43.7001 111.268C42.9692 110.537 41.9778 110.126 40.9441 110.126H40.0559C39.0222 110.126 38.0308 110.537 37.2999 111.268C36.5689 111.999 36.1583 112.99 36.1583 114.024L36.1583 132.711ZM36.1606 99.6557C36.1606 100.807 36.618 101.911 37.4322 102.726C38.2464 103.54 39.3508 103.997 40.5023 103.997C41.6537 103.997 42.7581 103.54 43.5723 102.726C44.3865 101.911 44.8439 100.807 44.8439 99.6557C44.8439 98.5042 44.3865 97.3999 43.5723 96.5858C42.7581 95.7716 41.6537 95.3142 40.5023 95.3142C39.3508 95.3142 38.2464 95.7716 37.4322 96.5858C36.618 97.3999 36.1606 98.5042 36.1606 99.6557Z" fill="#E67E22"/>
<path d="M56.5722 9H57.8363C60.6812 9.16052 63.2133 10.0521 65.4327 11.6748C73.9935 17.9351 72.7058 31.1152 63.1138 35.6037C56.4753 38.7116 48.523 36.1258 44.9663 29.6627C41.7537 23.8237 43.1539 16.4577 48.3254 12.1969C50.6757 10.261 53.4246 9.19542 56.5722 9Z" fill="#C0392B"/>
<path d="M39.4885 14.7408C37.4837 19.2354 37.1352 23.7862 38.4429 28.3934C40.818 36.7566 48.5191 42.4058 57.1571 42.4961C57.2016 42.4961 57.2251 42.5183 57.2278 42.5628C57.5183 48.113 59.7708 52.7057 63.9853 56.341C66.2728 58.3144 66.0464 61.9208 63.6765 63.749C62.7553 64.4591 61.6491 64.8146 60.3579 64.8155C45.2218 64.8294 30.0858 64.836 14.9497 64.8351C10.9153 64.8351 8.19213 60.6044 10.6641 57.1105C10.8595 56.8348 11.2202 56.4618 11.7463 55.9916C15.3946 52.7371 17.6336 48.3455 18.0524 43.4801C18.1004 42.9279 18.1244 42.056 18.1244 40.8643C18.1235 38.6178 18.1252 36.3714 18.1296 34.125C18.1518 22.578 27.9938 13.6651 39.4479 14.6714C39.4941 14.6749 39.5077 14.6981 39.4885 14.7408Z" fill="#C0392B"/>
<path d="M38.2047 76H37.0937C32.2847 75.6506 28.4518 72.3255 27.4154 67.6656C27.4142 67.6608 27.4141 67.6558 27.4151 67.6509C27.4162 67.6461 27.4183 67.6416 27.4213 67.6377C27.4243 67.6338 27.4282 67.6306 27.4326 67.6284C27.437 67.6262 27.4419 67.6251 27.4468 67.625H47.8595C47.8666 67.6251 47.8736 67.6267 47.88 67.6298C47.8864 67.6328 47.8921 67.6373 47.8966 67.6428C47.9011 67.6482 47.9043 67.6547 47.9061 67.6615C47.9078 67.6684 47.908 67.6756 47.9067 67.6826C46.882 72.3804 42.9877 75.6611 38.2047 76Z" fill="#C0392B"/>
</svg>
