<svg width="81" height="149" viewBox="0 0 81 149" fill="none" xmlns="http://www.w3.org/2000/svg">
<path d="M6.91612 77.0023L74.0839 77C75.2979 77 76.4905 77.3195 77.5419 77.9265C78.5933 78.5335 79.4664 79.4065 80.0734 80.4578C80.6804 81.5092 81 82.7018 81 83.9157C81 85.1297 80.6804 86.3223 80.0734 87.3736L46.4896 145.542C45.8826 146.593 45.0095 147.466 43.9581 148.073C42.9067 148.68 41.714 149 40.5 149C39.286 149 38.0933 148.68 37.0419 148.073C35.9905 147.466 35.1174 146.593 34.5104 145.542L0.926582 87.3759C0.319565 86.3245 0 85.1319 0 83.918C7.62939e-06 82.704 0.319572 81.5114 0.92659 80.4601C1.53361 79.4088 2.40669 78.5357 3.45808 77.9288C4.50946 77.3218 5.7021 77.0022 6.91612 77.0023ZM36.1583 123.711C36.1583 124.744 36.5689 125.736 37.2999 126.466C38.0308 127.197 39.0222 127.608 40.0559 127.608H40.9441C41.9778 127.608 42.9692 127.197 43.7001 126.466C44.4311 125.736 44.8417 124.744 44.8417 123.711L44.8417 105.024C44.8417 103.99 44.4311 102.999 43.7001 102.268C42.9692 101.537 41.9778 101.126 40.9441 101.126H40.0559C39.0222 101.126 38.0308 101.537 37.2999 102.268C36.5689 102.999 36.1583 103.99 36.1583 105.024L36.1583 123.711ZM36.1606 90.6557C36.1606 91.8071 36.618 92.9114 37.4322 93.7256C38.2464 94.5397 39.3508 94.9971 40.5023 94.9971C41.6537 94.9971 42.7581 94.5397 43.5723 93.7256C44.3865 92.9114 44.8439 91.8071 44.8439 90.6557C44.8439 89.5042 44.3865 88.3999 43.5723 87.5858C42.7581 86.7716 41.6537 86.3142 40.5023 86.3142C39.3508 86.3142 38.2464 86.7716 37.4322 87.5858C36.618 88.3999 36.1606 89.5042 36.1606 90.6557Z" fill="#E67E22"/>
<path d="M56.5722 0H57.8363C60.6812 0.160521 63.2133 1.05211 65.4327 2.67477C73.9935 8.93508 72.7058 22.1152 63.1138 26.6037C56.4753 29.7116 48.523 27.1258 44.9663 20.6627C41.7537 14.8237 43.1539 7.45768 48.3254 3.19689C50.6757 1.26105 53.4246 0.195417 56.5722 0Z" fill="#C0392B"/>
<path d="M39.4885 5.7408C37.4837 10.2354 37.1352 14.7862 38.4429 19.3934C40.818 27.7566 48.5191 33.4058 57.1571 33.4961C57.2016 33.4961 57.2251 33.5183 57.2278 33.5628C57.5183 39.113 59.7708 43.7057 63.9853 47.341C66.2728 49.3144 66.0464 52.9208 63.6765 54.749C62.7553 55.4591 61.6491 55.8146 60.3579 55.8155C45.2218 55.8294 30.0858 55.836 14.9497 55.8351C10.9153 55.8351 8.19213 51.6044 10.6641 48.1105C10.8595 47.8348 11.2202 47.4618 11.7463 46.9916C15.3946 43.7371 17.6336 39.3455 18.0524 34.4801C18.1004 33.9279 18.1244 33.056 18.1244 31.8643C18.1235 29.6178 18.1252 27.3714 18.1296 25.125C18.1518 13.578 27.9938 4.66514 39.4479 5.67145C39.4941 5.67494 39.5077 5.69806 39.4885 5.7408Z" fill="#C0392B"/>
<path d="M38.2047 67H37.0937C32.2847 66.6506 28.4518 63.3255 27.4154 58.6656C27.4142 58.6608 27.4141 58.6558 27.4151 58.6509C27.4162 58.6461 27.4183 58.6416 27.4213 58.6377C27.4243 58.6338 27.4282 58.6306 27.4326 58.6284C27.437 58.6262 27.4419 58.6251 27.4468 58.625H47.8595C47.8666 58.6251 47.8736 58.6267 47.88 58.6298C47.8864 58.6328 47.8921 58.6373 47.8966 58.6428C47.9011 58.6482 47.9043 58.6547 47.9061 58.6615C47.9078 58.6684 47.908 58.6756 47.9067 58.6826C46.882 63.3804 42.9877 66.6611 38.2047 67Z" fill="#C0392B"/>
</svg>
